<?xml version="1.0" encoding="UTF-8" standalone="no"?>
<!-- Created with Inkscape (http://www.inkscape.org/) -->

<svg
   xmlns:svg="http://www.w3.org/2000/svg"
   xmlns="http://www.w3.org/2000/svg"
   xmlns:xlink="http://www.w3.org/1999/xlink"
   version="1.1"
   width="48"
   height="48"
   id="svg3839">
  <defs
     id="defs3841">
    <linearGradient
       id="linearGradient3799">
      <stop
         id="stop3801"
         style="stop-color:#555753;stop-opacity:1"
         offset="0" />
      <stop
         id="stop3803"
         style="stop-color:#555753;stop-opacity:0"
         offset="1" />
    </linearGradient>
    <linearGradient
       id="linearGradient5154">
      <stop
         id="stop5156"
         style="stop-color:#ffffff;stop-opacity:1"
         offset="0" />
      <stop
         id="stop5158"
         style="stop-color:#ffffff;stop-opacity:0"
         offset="1" />
    </linearGradient>
    <linearGradient
       id="linearGradient5162">
      <stop
         id="stop5166"
         style="stop-color:#9c9e99;stop-opacity:1"
         offset="0" />
      <stop
         id="stop5164"
         style="stop-color:#868883;stop-opacity:1"
         offset="1" />
    </linearGradient>
    <linearGradient
       id="linearGradient5186">
      <stop
         id="stop5188"
         style="stop-color:#000000;stop-opacity:1"
         offset="0" />
      <stop
         id="stop5190"
         style="stop-color:#000000;stop-opacity:0"
         offset="1" />
    </linearGradient>
    <radialGradient
       cx="11.004161"
       cy="9.3000956"
       r="7.9645052"
       fx="11.004161"
       fy="9.3000956"
       id="radialGradient3884"
       xlink:href="#linearGradient5162"
       gradientUnits="userSpaceOnUse"
       gradientTransform="matrix(1.5405641,0,0,1.5392619,-4.0668303,-13.331411)" />
    <linearGradient
       x1="10.364615"
       y1="5.29778"
       x2="10.364615"
       y2="24.067238"
       id="linearGradient3886"
       xlink:href="#linearGradient5154"
       gradientUnits="userSpaceOnUse" />
    <radialGradient
       cx="16.502085"
       cy="8.0548735"
       r="10.110913"
       fx="16.502085"
       fy="8.0548735"
       id="radialGradient3888"
       xlink:href="#linearGradient3799"
       gradientUnits="userSpaceOnUse"
       gradientTransform="matrix(1.1574281,0,0,0.5826333,-2.5978912,8.124026)" />
    <radialGradient
       cx="10.5625"
       cy="17.625"
       r="8.5625"
       fx="10.5625"
       fy="17.625"
       id="radialGradient2185"
       xlink:href="#linearGradient5186"
       gradientUnits="userSpaceOnUse"
       gradientTransform="matrix(0.9522895,0,0,0.3336489,0.5039423,11.744441)" />
    <radialGradient
       cx="10.5625"
       cy="17.625"
       r="8.5625"
       fx="10.5625"
       fy="17.625"
       id="radialGradient2189"
       xlink:href="#linearGradient5186"
       gradientUnits="userSpaceOnUse"
       gradientTransform="matrix(0.9642909,0,0,0.3378538,0.3771775,11.67033)" />
    <radialGradient
       cx="10.5625"
       cy="17.625"
       r="8.5625"
       fx="10.5625"
       fy="17.625"
       id="radialGradient2192"
       xlink:href="#linearGradient5186"
       gradientUnits="userSpaceOnUse"
       gradientTransform="matrix(1,0,0,0.350365,0,11.44982)" />
  </defs>
  <g
     id="layer1">
    <path
       d="m 19.125,17.625 a 8.5625,3 0 1 1 -17.125,0 8.5625,3 0 1 1 17.125,0 z"
       transform="matrix(2.5841197,0,0,1.3158205,-2.2947635,11.602319)"
       id="path3819"
       style="opacity:0.09195401;color:#000000;fill:url(#radialGradient2192);fill-opacity:1;fill-rule:nonzero;stroke:none;stroke-width:1;marker:none;visibility:visible;display:inline;overflow:visible" />
    <path
       d="m 19.125,17.625 a 8.5625,3 0 1 1 -17.125,0 8.5625,3 0 1 1 17.125,0 z"
       transform="matrix(1.0510949,0,0,1.401731,2.89781,11.499684)"
       id="path2183"
       style="opacity:0.2030651;color:#000000;fill:url(#radialGradient2185);fill-opacity:1;fill-rule:nonzero;stroke:none;stroke-width:1;marker:none;visibility:visible;display:inline;overflow:visible" />
    <path
       d="m 19.125,17.625 a 8.5625,3 0 1 1 -17.125,0 8.5625,3 0 1 1 17.125,0 z"
       transform="matrix(1.0510949,0,0,1.401731,23.89781,11.499684)"
       id="path2187"
       style="opacity:0.2030651;color:#000000;fill:url(#radialGradient2189);fill-opacity:1;fill-rule:nonzero;stroke:none;stroke-width:1;marker:none;visibility:visible;display:inline;overflow:visible" />
    <g
       transform="matrix(1.2307692,0,0,1.2307692,3.222518,7.3727903)"
       id="g3821">
      <g
         transform="translate(4.5267189,9.405604)"
         id="g3823">
        <path
           d="M 4.3116263,-7.9047834 C 3.1284911,-7.9138208 2.0467982,-7.191319 1.5988112,-6.0962397 1.150825,-5.0011613 1.426782,-3.7540848 2.2770152,-2.9312886 L 8.7877699,3.5794713 2.2770152,10.090223 c -1.1361699,1.136169 -1.1361699,2.978273 0,4.114442 1.1361698,1.136169 2.9782651,1.136169 4.1144348,0 l 6.510757,-6.5107603 6.510757,6.5107603 c 0.730144,0.750985 1.791232,1.038707 2.803236,0.76863 1.012014,-0.270076 1.820949,-1.064894 2.079824,-2.079826 0.258878,-1.014931 -0.05483,-2.081437 -0.813839,-2.803246 l -6.510756,-6.5107517 6.510756,-6.5107599 c 0.856689,-0.8284531 1.137986,-2.1106871 0.678203,-3.2101648 -0.459782,-1.0994771 -1.566617,-1.7913567 -2.758026,-1.76333 -0.755832,0.029848 -1.469928,0.3544399 -1.989398,0.9042714 L 12.902207,-0.4897543 6.39145,-7.000512 C 5.8500755,-7.572344 5.0990546,-7.8988742 4.3116263,-7.9047834 z"
           id="path3825"
           style="color:#000000;fill:url(#radialGradient3884);fill-opacity:1;fill-rule:nonzero;stroke:#555753;stroke-width:0.8125;stroke-linecap:round;stroke-linejoin:round;stroke-miterlimit:4;stroke-opacity:1;stroke-dasharray:none;stroke-dashoffset:0;marker:none;visibility:visible;display:inline;overflow:visible" />
      </g>
      <path
         d="m 4.3125,-7.09375 c -0.8421022,-0.00643 -1.6493385,0.5317164 -1.96875,1.3125 -0.3191795,0.7802174 -0.1195702,1.6504233 0.5,2.25 a 0.82386178,0.82386178 0 0 1 0.03125,0 L 9.375,3 a 0.82386178,0.82386178 0 0 1 0,1.1875 l -6.5,6.5 c -0.8195574,0.819557 -0.8195574,2.117943 0,2.9375 0.8195578,0.819557 2.1179424,0.819557 2.9375,0 l 6.5,-6.53125 a 0.82386178,0.82386178 0 0 1 1.1875,0 L 20,13.625 a 0.82386178,0.82386178 0 0 1 0,0.03125 c 0.518211,0.533002 1.25952,0.728864 2,0.53125 0.734866,-0.196114 1.284374,-0.777144 1.46875,-1.5 0.185199,-0.726074 -0.01788,-1.482078 -0.5625,-2 a 0.82386178,0.82386178 0 0 1 -0.03125,0 l -6.5,-6.5 A 0.82386178,0.82386178 0 0 1 16.375,3 l 6.5,-6.53125 a 0.82386178,0.82386178 0 0 1 0.03125,0 c 0.616222,-0.5959117 0.823577,-1.5387301 0.5,-2.3125 -0.326094,-0.7797873 -1.101768,-1.2703949 -1.96875,-1.25 -0.539848,0.021319 -1.068861,0.2660647 -1.4375,0.65625 a 0.82386178,0.82386178 0 0 1 0,0.03125 l -6.5,6.5 a 0.82386178,0.82386178 0 0 1 -1.1875,0 l -6.5,-6.5 a 0.82386178,0.82386178 0 0 1 0,-0.03125 c -0.3833185,-0.4048838 -0.9376652,-0.65203 -1.5,-0.65625 z"
         transform="translate(4.5477906,9.4068256)"
         id="path3827"
         style="opacity:0.36206898;color:#000000;fill:none;stroke:url(#linearGradient3886);stroke-width:0.8125;stroke-linecap:round;stroke-linejoin:round;stroke-miterlimit:4;stroke-opacity:1;stroke-dasharray:none;stroke-dashoffset:0;marker:none;visibility:visible;display:inline;overflow:visible" />
      <path
         d="m 14,13 c 4.242641,-1.237437 3.154067,0.132583 6.911612,0.132583 L 27.823223,20.044194 24,23 17.500893,16.443651 11,22.779029 7.6013979,19.448855 14,13 z"
         id="path3829"
         style="opacity:0.3;fill:url(#radialGradient3888);fill-opacity:1;fill-rule:evenodd;stroke:none" />
    </g>
  </g>
</svg>
