<?xml version="1.0" encoding="UTF-8" standalone="no"?>
<!-- Created with Inkscape (http://www.inkscape.org/) -->

<svg
   xmlns:dc="http://purl.org/dc/elements/1.1/"
   xmlns:cc="http://creativecommons.org/ns#"
   xmlns:rdf="http://www.w3.org/1999/02/22-rdf-syntax-ns#"
   xmlns:svg="http://www.w3.org/2000/svg"
   xmlns="http://www.w3.org/2000/svg"
   xmlns:xlink="http://www.w3.org/1999/xlink"
   xmlns:sodipodi="http://sodipodi.sourceforge.net/DTD/sodipodi-0.dtd"
   xmlns:inkscape="http://www.inkscape.org/namespaces/inkscape"
   width="150"
   height="42"
   id="svg2"
   sodipodi:version="0.32"
   inkscape:version="0.91 r13725"
   sodipodi:docname="nagstamon_logo_toparea_template.svg"
   inkscape:output_extension="org.inkscape.output.svg.inkscape"
   version="1.1">
  <defs
     id="defs4">
    <inkscape:perspective
       sodipodi:type="inkscape:persp3d"
       inkscape:vp_x="0 : 526.18109 : 1"
       inkscape:vp_y="0 : 1000 : 0"
       inkscape:vp_z="744.09448 : 526.18109 : 1"
       inkscape:persp3d-origin="372.04724 : 350.78739 : 1"
       id="perspective10" />
    <inkscape:perspective
       id="perspective2433"
       inkscape:persp3d-origin="372.04724 : 350.78739 : 1"
       inkscape:vp_z="744.09448 : 526.18109 : 1"
       inkscape:vp_y="6.123234e-14 : 1000 : 0"
       inkscape:vp_x="0 : 526.18109 : 1"
       sodipodi:type="inkscape:persp3d" />
    <linearGradient
       id="linearGradient3163">
      <stop
         id="stop3165"
         offset="0"
         style="stop-color:#ffffff;stop-opacity:1;" />
      <stop
         id="stop3167"
         offset="1"
         style="stop-color:#c3c3c3;stop-opacity:1;" />
    </linearGradient>
    <linearGradient
       id="linearGradient3191">
      <stop
         style="stop-color:#767676;stop-opacity:1;"
         offset="0"
         id="stop3193" />
      <stop
         style="stop-color:#d4d4d4;stop-opacity:1;"
         offset="1"
         id="stop3195" />
    </linearGradient>
    <linearGradient
       id="linearGradient3343">
      <stop
         style="stop-color:#ffffff;stop-opacity:0.59740257;"
         offset="0"
         id="stop3345" />
      <stop
         style="stop-color:#ffffff;stop-opacity:0.32034633;"
         offset="1"
         id="stop3347" />
    </linearGradient>
    <linearGradient
       id="linearGradient3371">
      <stop
         style="stop-color:#575a5b;stop-opacity:1;"
         offset="0"
         id="stop3373" />
      <stop
         style="stop-color:#000000;stop-opacity:0;"
         offset="1"
         id="stop3375" />
    </linearGradient>
    <linearGradient
       inkscape:collect="always"
       xlink:href="#linearGradient3163"
       id="linearGradient3884"
       gradientUnits="userSpaceOnUse"
       x1="200.94165"
       y1="299.38992"
       x2="550.94165"
       y2="599.38995" />
    <linearGradient
       inkscape:collect="always"
       xlink:href="#linearGradient3191"
       id="linearGradient3886"
       gradientUnits="userSpaceOnUse"
       x1="540.94165"
       y1="589.38995"
       x2="210.94165"
       y2="309.38992" />
    <linearGradient
       inkscape:collect="always"
       xlink:href="#linearGradient3191"
       id="linearGradient3888"
       gradientUnits="userSpaceOnUse"
       gradientTransform="matrix(0.8787879,0,0,0.8571431,45.568681,64.198531)"
       x1="210.94165"
       y1="309.38995"
       x2="540.94165"
       y2="589.38995" />
    <linearGradient
       inkscape:collect="always"
       xlink:href="#linearGradient3343"
       id="linearGradient3890"
       gradientUnits="userSpaceOnUse"
       gradientTransform="translate(0,1.0253906e-5)"
       x1="380.94165"
       y1="349.38992"
       x2="380.94165"
       y2="439.38992" />
  </defs>
  <sodipodi:namedview
     id="base"
     pagecolor="#ffffff"
     bordercolor="#666666"
     borderopacity="1.0"
     inkscape:pageopacity="0.0"
     inkscape:pageshadow="2"
     inkscape:zoom="2.8"
     inkscape:cx="-73.25"
     inkscape:cy="-20.808887"
     inkscape:document-units="px"
     inkscape:current-layer="g3378"
     showgrid="false"
     inkscape:window-width="1920"
     inkscape:window-height="1016"
     inkscape:window-x="0"
     inkscape:window-y="27"
     inkscape:window-maximized="1"
     fit-margin-top="10"
     fit-margin-left="10"
     fit-margin-right="10"
     fit-margin-bottom="10"
     units="px"
     showguides="true"
     inkscape:guide-bbox="true">
    <sodipodi:guide
       position="93.214286,13.571429"
       orientation="0,1"
       id="guide4177" />
  </sodipodi:namedview>
  <metadata
     id="metadata7">
    <rdf:RDF>
      <cc:Work
         rdf:about="">
        <dc:format>image/svg+xml</dc:format>
        <dc:type
           rdf:resource="http://purl.org/dc/dcmitype/StillImage" />
        <dc:title></dc:title>
      </cc:Work>
    </rdf:RDF>
  </metadata>
  <g
     inkscape:label="Ebene 1"
     inkscape:groupmode="layer"
     id="layer1"
     transform="translate(-120.44974,-504.3294)">
    <g
       id="g3894"
       inkscape:export-xdpi="37"
       inkscape:export-ydpi="37">
      <g
         id="g3414"
         transform="matrix(0.45280533,0,0,0.45280533,64.941726,297.05922)">
        <g
           id="g3791"
           transform="translate(-97.35898,-49.862263)"
           inkscape:export-xdpi="37.161289"
           inkscape:export-ydpi="37.161289">
          <g
             transform="matrix(0.1832949,0,0,0.1832949,171.09181,307.1134)"
             id="g3191" />
          <g
             transform="matrix(0.1832949,0,0,0.1832949,192.81009,471.6157)"
             inkscape:export-ydpi="34.611824"
             inkscape:export-xdpi="34.611824"
             id="g3518">
            <rect
               ry="39.583015"
               inkscape:export-ydpi="10.383548"
               inkscape:export-xdpi="10.383548"
               style="fill:#434343;fill-opacity:1;stroke:none"
               id="rect3470"
               width="370"
               height="320"
               x="190.94165"
               y="289.38992" />
            <rect
               ry="37.109081"
               inkscape:export-ydpi="10.383548"
               inkscape:export-xdpi="10.383548"
               style="fill:url(#linearGradient3884);fill-opacity:1;stroke:none"
               id="rect3171"
               width="350"
               height="300.00003"
               x="200.94165"
               y="299.38989" />
            <rect
               ry="34.635136"
               inkscape:export-ydpi="10.383548"
               inkscape:export-xdpi="10.383548"
               style="fill:url(#linearGradient3886);fill-opacity:1;stroke:none"
               id="rect3173"
               width="330"
               height="279.99997"
               x="210.94165"
               y="309.38995" />
            <rect
               ry="29.687262"
               inkscape:export-ydpi="10.383548"
               inkscape:export-xdpi="10.383548"
               style="fill:url(#linearGradient3888);fill-opacity:1;stroke:none"
               id="rect3197"
               width="290"
               height="240.00003"
               x="230.94165"
               y="329.38992" />
            <rect
               ry="27.213316"
               inkscape:export-ydpi="10.383548"
               inkscape:export-xdpi="10.383548"
               style="fill:#000000;fill-opacity:1;stroke:none"
               id="rect3201"
               width="270"
               height="219.99997"
               x="240.94165"
               y="339.38995" />
            <g
               transform="matrix(-1,0,0,-1,751.8833,898.77986)"
               id="g2417">
              <path
                 inkscape:connector-curvature="0"
                 style="fill:#ffff00;fill-opacity:1;stroke:none"
                 d="m 268.15497,339.38992 215.57336,0 c 15.07618,0 27.21332,12.13714 27.21332,27.21332 0,22.7867 0,32.7867 0,42.7867 l -270,0 0,-42.7867 c 0,-15.07618 12.13714,-27.21332 27.21332,-27.21332 z"
                 id="rect3244"
                 sodipodi:nodetypes="ccccccc" />
              <path
                 inkscape:connector-curvature="0"
                 style="fill:#ff0000;fill-opacity:1;stroke:none"
                 d="m 483.72833,559.38994 -215.57336,0 c -15.07618,0 -27.21332,-12.13714 -27.21332,-27.21332 0,-22.7867 0,-42.7867 0,-52.7867 l 270,0 0,52.7867 c 0,15.07618 -12.13714,27.21332 -27.21332,27.21332 z"
                 id="path3247"
                 sodipodi:nodetypes="ccccccc" />
              <rect
                 style="fill:#ff8500;fill-opacity:1;stroke:none"
                 id="rect3249"
                 width="270"
                 height="70"
                 x="70"
                 y="156.04276"
                 transform="translate(170.94165,253.34718)"
                 ry="0" />
            </g>
            <path
               inkscape:connector-curvature="0"
               id="text3349"
               d="m 297.87524,359.38994 49.96768,0 63.09873,123.45615 0,-123.45615 42.41444,0 0,180 -49.96769,0 -63.09872,-123.45616 0,123.45616 -42.41444,0 0,-180"
               style="font-style:normal;font-weight:normal;font-size:40px;font-family:'Bitstream Vera Sans';fill:#000000;fill-opacity:1;stroke:none" />
            <path
               inkscape:connector-curvature="0"
               sodipodi:nodetypes="cccszccc"
               id="path3333"
               d="m 268.15497,339.38994 215.54361,0 c 15.24307,0 27.26669,12.23819 27.24307,27.25 0,10.41937 0,12.75002 0,12.75002 0,18.21611 -54.30068,-8.87725 -130,50 -75.69932,58.87724 -130,60 -140,60 l 0,-122.7867 c 0,-15.07618 12.13714,-27.21332 27.21332,-27.21332 z"
               style="fill:url(#linearGradient3890);fill-opacity:1;stroke:none" />
          </g>
          <g
             id="g3378"
             transform="translate(0,4.021768)">
            <path
               inkscape:connector-curvature="0"
               id="path3373"
               style="font-style:normal;font-weight:normal;font-size:medium;font-family:'Bitstream Vera Sans';-inkscape-font-specification:'Bitstream Vera Sans';fill:#ff00ff;fill-opacity:1;stroke:none"
               d="m 330.97254,550.44249 0,13.62482 -3.70853,0 0,-13.50389 q 0,-3.20466 -1.24961,-4.79691 -1.24962,-1.59225 -3.74884,-1.59225 -3.00311,0 -4.73644,1.91474 -1.73334,1.91473 -1.73334,5.22016 l 0,12.75815 -3.72869,0 0,-22.57367 3.72869,0 0,3.50698 q 1.33024,-2.03566 3.12404,-3.04341 1.81395,-1.00776 4.17209,-1.00776 3.88993,0 5.88528,2.41861 1.99535,2.39845 1.99535,7.07443 z" />
            <path
               inkscape:connector-curvature="0"
               id="path3375"
               style="font-style:normal;font-weight:normal;font-size:medium;font-family:'Bitstream Vera Sans';-inkscape-font-specification:'Bitstream Vera Sans';fill:#ff00ff;fill-opacity:1;stroke:none"
               d="m 348.66869,552.72001 q -4.49458,0 -6.22792,1.02791 -1.73333,1.02791 -1.73333,3.50698 0,1.9752 1.28992,3.14419 1.31008,1.14884 3.54729,1.14884 3.08373,0 4.938,-2.17675 1.87442,-2.1969 1.87442,-5.82481 l 0,-0.82636 -3.68838,0 z m 7.39691,-1.53178 0,12.87908 -3.70853,0 0,-3.42636 q -1.26977,2.05582 -3.16435,3.04342 -1.89457,0.96744 -4.63566,0.96744 -3.46667,0 -5.52249,-1.93489 -2.03566,-1.95504 -2.03566,-5.22016 0,-3.80931 2.53954,-5.74419 2.55969,-1.93489 7.61861,-1.93489 l 5.20001,0 0,-0.36279 q 0,-2.55969 -1.69303,-3.95039 -1.67287,-1.41086 -4.71628,-1.41086 -1.93489,0 -3.769,0.46357 -1.83411,0.46357 -3.52714,1.3907 l 0,-3.42636 q 2.03566,-0.78605 3.9504,-1.16899 1.91473,-0.40311 3.72868,-0.40311 4.89768,0 7.31629,2.53954 2.41861,2.53954 2.41861,7.69924 z" />
            <path
               inkscape:connector-curvature="0"
               id="path3377"
               style="font-style:normal;font-weight:normal;font-size:medium;font-family:'Bitstream Vera Sans';-inkscape-font-specification:'Bitstream Vera Sans';fill:#ff00ff;fill-opacity:1;stroke:none"
               d="m 378.5788,552.51846 q 0,-4.03101 -1.67287,-6.24807 -1.65271,-2.21706 -4.65582,-2.21706 -2.98295,0 -4.65582,2.21706 -1.65271,2.21706 -1.65271,6.24807 0,4.01086 1.65271,6.22792 1.67287,2.21705 4.65582,2.21705 3.00311,0 4.65582,-2.21705 1.67287,-2.21706 1.67287,-6.22792 z m 3.70854,8.7473 q 0,5.76435 -2.5597,8.5659 -2.55969,2.82171 -7.84032,2.82171 -1.95504,0 -3.68837,-0.30233 -1.73334,-0.28217 -3.3659,-0.88682 l 0,-3.60776 q 1.63256,0.88683 3.22481,1.31008 1.59225,0.42326 3.24497,0.42326 3.64806,0 5.46202,-1.91473 1.81395,-1.89458 1.81395,-5.7442 l 0,-1.83411 q -1.14883,1.99536 -2.94264,2.98295 -1.7938,0.9876 -4.29302,0.9876 -4.15195,0 -6.69148,-3.16434 -2.53954,-3.16435 -2.53954,-8.38451 0,-5.24032 2.53954,-8.40466 2.53953,-3.16435 6.69148,-3.16435 2.49922,0 4.29302,0.9876 1.79381,0.9876 2.94264,2.98295 l 0,-3.42636 3.70854,0 0,19.77212 z" />
            <path
               inkscape:connector-curvature="0"
               id="path3379"
               style="font-style:normal;font-weight:normal;font-size:medium;font-family:'Bitstream Vera Sans';-inkscape-font-specification:'Bitstream Vera Sans';fill:#ff00ff;fill-opacity:1;stroke:none"
               d="m 404.31682,542.15876 0,3.50698 q -1.57209,-0.8062 -3.26512,-1.2093 -1.69302,-0.40311 -3.50698,-0.40311 -2.76124,0 -4.15194,0.84652 -1.37055,0.84651 -1.37055,2.53953 0,1.28993 0.9876,2.03567 0.9876,0.72558 3.97055,1.3907 l 1.26977,0.28217 q 3.95039,0.84651 5.6031,2.39845 1.67288,1.53178 1.67288,4.29303 0,3.14419 -2.49923,4.9783 -2.47908,1.83411 -6.83257,1.83411 -1.81395,0 -3.78915,-0.36279 -1.95504,-0.34264 -4.13179,-1.04807 l 0,-3.82946 q 2.05582,1.06822 4.05117,1.61241 1.99535,0.52403 3.95039,0.52403 2.62016,0 4.03101,-0.88682 1.41086,-0.90698 1.41086,-2.53954 0,-1.51163 -1.02791,-2.31783 -1.00775,-0.80621 -4.45427,-1.55194 l -1.28992,-0.30233 q -3.44652,-0.72558 -4.9783,-2.21706 -1.53179,-1.51163 -1.53179,-4.13178 0,-3.1845 2.25737,-4.91784 2.25737,-1.73334 6.40931,-1.73334 2.05582,0 3.86977,0.30233 1.81396,0.30233 3.34574,0.90698 z" />
            <path
               inkscape:connector-curvature="0"
               id="path3381"
               style="font-style:normal;font-weight:normal;font-size:medium;font-family:'Bitstream Vera Sans';-inkscape-font-specification:'Bitstream Vera Sans';fill:#ff00ff;fill-opacity:1;stroke:none"
               d="m 415.11993,535.08433 0,6.40931 7.63877,0 0,2.88218 -7.63877,0 0,12.25427 q 0,2.76125 0.74574,3.54729 0.76589,0.78605 3.08372,0.78605 l 3.80931,0 0,3.10388 -3.80931,0 q -4.29302,0 -5.92558,-1.59225 -1.63256,-1.6124 -1.63256,-5.84497 l 0,-12.25427 -2.72094,0 0,-2.88218 2.72094,0 0,-6.40931 3.72868,0 z" />
            <path
               inkscape:connector-curvature="0"
               id="path3383"
               style="font-style:normal;font-weight:normal;font-size:medium;font-family:'Bitstream Vera Sans';-inkscape-font-specification:'Bitstream Vera Sans';fill:#ff00ff;fill-opacity:1;stroke:none"
               d="m 437.9153,552.72001 q -4.49458,0 -6.22791,1.02791 -1.73334,1.02791 -1.73334,3.50698 0,1.9752 1.28993,3.14419 1.31008,1.14884 3.54729,1.14884 3.08372,0 4.93799,-2.17675 1.87442,-2.1969 1.87442,-5.82481 l 0,-0.82636 -3.68838,0 z m 7.39691,-1.53178 0,12.87908 -3.70853,0 0,-3.42636 q -1.26977,2.05582 -3.16434,3.04342 -1.89458,0.96744 -4.63567,0.96744 -3.46667,0 -5.52249,-1.93489 -2.03566,-1.95504 -2.03566,-5.22016 0,-3.80931 2.53954,-5.74419 2.55969,-1.93489 7.61861,-1.93489 l 5.20001,0 0,-0.36279 q 0,-2.55969 -1.69302,-3.95039 -1.67288,-1.41086 -4.71629,-1.41086 -1.93489,0 -3.769,0.46357 -1.83411,0.46357 -3.52713,1.3907 l 0,-3.42636 q 2.03566,-0.78605 3.95039,-1.16899 1.91473,-0.40311 3.72869,-0.40311 4.89768,0 7.31628,2.53954 2.41861,2.53954 2.41861,7.69924 z" />
            <path
               inkscape:connector-curvature="0"
               id="path3385"
               style="font-style:normal;font-weight:normal;font-size:medium;font-family:'Bitstream Vera Sans';-inkscape-font-specification:'Bitstream Vera Sans';fill:#ff00ff;fill-opacity:1;stroke:none"
               d="m 470.54635,545.82698 q 1.3907,-2.49923 3.32559,-3.68838 1.93488,-1.18915 4.55504,-1.18915 3.52714,0 5.44187,2.47908 1.91473,2.45891 1.91473,7.01396 l 0,13.62482 -3.72869,0 0,-13.50389 q 0,-3.24497 -1.14884,-4.81706 -1.14884,-1.5721 -3.50698,-1.5721 -2.88217,0 -4.55504,1.91474 -1.67287,1.91473 -1.67287,5.22016 l 0,12.75815 -3.72869,0 0,-13.50389 q 0,-3.26512 -1.14884,-4.81706 -1.14884,-1.5721 -3.54729,-1.5721 -2.84186,0 -4.51473,1.93489 -1.67287,1.91473 -1.67287,5.20001 l 0,12.75815 -3.72869,0 0,-22.57367 3.72869,0 0,3.50698 q 1.26977,-2.07597 3.04341,-3.06357 1.77365,-0.9876 4.21241,-0.9876 2.45892,0 4.1721,1.24962 1.73333,1.24961 2.55969,3.62791 z" />
            <path
               inkscape:connector-curvature="0"
               id="path3387"
               style="font-style:normal;font-weight:normal;font-size:medium;font-family:'Bitstream Vera Sans';-inkscape-font-specification:'Bitstream Vera Sans';fill:#ff00ff;fill-opacity:1;stroke:none"
               d="m 501.94794,544.09364 q -2.98295,0 -4.71628,2.33799 -1.73334,2.31783 -1.73334,6.369 0,4.05117 1.71318,6.38916 1.73334,2.31783 4.73644,2.31783 2.96279,0 4.69613,-2.33799 1.73333,-2.33799 1.73333,-6.369 0,-4.01086 -1.73333,-6.34884 -1.73334,-2.35815 -4.69613,-2.35815 z m 0,-3.14419 q 4.83721,0 7.59846,3.14419 2.76124,3.14419 2.76124,8.70699 0,5.54264 -2.76124,8.70699 -2.76125,3.14419 -7.59846,3.14419 -4.85737,0 -7.61861,-3.14419 -2.74109,-3.16435 -2.74109,-8.70699 0,-5.5628 2.74109,-8.70699 2.76124,-3.14419 7.61861,-3.14419 z" />
            <path
               inkscape:connector-curvature="0"
               id="path3389"
               style="font-style:normal;font-weight:normal;font-size:medium;font-family:'Bitstream Vera Sans';-inkscape-font-specification:'Bitstream Vera Sans';fill:#ff00ff;fill-opacity:1;stroke:none"
               d="m 537.19915,550.44249 0,13.62482 -3.70853,0 0,-13.50389 q 0,-3.20466 -1.24961,-4.79691 -1.24962,-1.59225 -3.74884,-1.59225 -3.00311,0 -4.73644,1.91474 -1.73334,1.91473 -1.73334,5.22016 l 0,12.75815 -3.72869,0 0,-22.57367 3.72869,0 0,3.50698 q 1.33023,-2.03566 3.12403,-3.04341 1.81396,-1.00776 4.1721,-1.00776 3.88993,0 5.88528,2.41861 1.99535,2.39845 1.99535,7.07443 z" />
          </g>
        </g>
      </g>
    </g>
  </g>
</svg>
