<?xml version="1.0" encoding="UTF-8" standalone="no"?>
<!-- Created with Inkscape (http://www.inkscape.org/) -->

<svg
   xmlns:svg="http://www.w3.org/2000/svg"
   xmlns="http://www.w3.org/2000/svg"
   xmlns:xlink="http://www.w3.org/1999/xlink"
   version="1.0"
   width="48"
   height="48"
   id="svg11300">
  <defs
     id="defs3">
    <linearGradient
       id="linearGradient5335">
      <stop
         id="stop5337"
         style="stop-color:#ffffff;stop-opacity:1"
         offset="0" />
      <stop
         id="stop5339"
         style="stop-color:#ffffff;stop-opacity:0"
         offset="1" />
    </linearGradient>
    <linearGradient
       id="linearGradient5313">
      <stop
         id="stop5315"
         style="stop-color:#99b8df;stop-opacity:1"
         offset="0" />
      <stop
         id="stop5333"
         style="stop-color:#3969a8;stop-opacity:1"
         offset="0.23705086" />
      <stop
         id="stop5317"
         style="stop-color:#4f7eba;stop-opacity:1"
         offset="0.54706067" />
      <stop
         id="stop5321"
         style="stop-color:#96b6d7;stop-opacity:1"
         offset="0.74557692" />
      <stop
         id="stop5331"
         style="stop-color:#a0bddc;stop-opacity:1"
         offset="0.87321436" />
      <stop
         id="stop5319"
         style="stop-color:#729fcf;stop-opacity:1"
         offset="1" />
    </linearGradient>
    <linearGradient
       id="linearGradient8152">
      <stop
         id="stop8154"
         style="stop-color:#3465a4;stop-opacity:1"
         offset="0" />
      <stop
         id="stop3174"
         style="stop-color:#4f7eba;stop-opacity:1"
         offset="0.5" />
      <stop
         id="stop8156"
         style="stop-color:#729fcf;stop-opacity:1"
         offset="1" />
    </linearGradient>
    <linearGradient
       id="linearGradient3207">
      <stop
         id="stop3209"
         style="stop-color:#eeeeec;stop-opacity:0.47058824"
         offset="0" />
      <stop
         id="stop3211"
         style="stop-color:#eeeeec;stop-opacity:0"
         offset="1" />
    </linearGradient>
    <linearGradient
       id="linearGradient2847">
      <stop
         id="stop2849"
         style="stop-color:#3465a4;stop-opacity:1"
         offset="0" />
      <stop
         id="stop2851"
         style="stop-color:#3465a4;stop-opacity:0"
         offset="1" />
    </linearGradient>
    <linearGradient
       id="linearGradient2831">
      <stop
         id="stop2833"
         style="stop-color:#3465a4;stop-opacity:1"
         offset="0" />
      <stop
         id="stop2855"
         style="stop-color:#5b86be;stop-opacity:1"
         offset="0.33333334" />
      <stop
         id="stop2835"
         style="stop-color:#83a8d8;stop-opacity:0"
         offset="1" />
    </linearGradient>
    <linearGradient
       id="linearGradient8662">
      <stop
         id="stop8664"
         style="stop-color:#000000;stop-opacity:1"
         offset="0" />
      <stop
         id="stop8666"
         style="stop-color:#000000;stop-opacity:0"
         offset="1" />
    </linearGradient>
    <linearGradient
       x1="13.478554"
       y1="10.612206"
       x2="15.419417"
       y2="19.115122"
       id="linearGradient1486"
       xlink:href="#linearGradient2831"
       gradientUnits="userSpaceOnUse"
       gradientTransform="matrix(1.0818662,0,0,1.1166851,-0.8207482,-1.8622434)" />
    <linearGradient
       x1="37.128052"
       y1="29.729605"
       x2="37.40255"
       y2="26.800913"
       id="linearGradient1488"
       xlink:href="#linearGradient2847"
       gradientUnits="userSpaceOnUse"
       gradientTransform="matrix(-1.0818662,0,0,-1.1166851,50.09459,49.644854)" />
    <radialGradient
       cx="24.837126"
       cy="36.421127"
       r="15.644737"
       fx="24.837126"
       fy="36.421127"
       id="radialGradient1503"
       xlink:href="#linearGradient8662"
       gradientUnits="userSpaceOnUse"
       gradientTransform="matrix(1,0,0,0.536723,0,16.87306)" />
    <linearGradient
       x1="49.412277"
       y1="37.904068"
       x2="11.881318"
       y2="19.776045"
       id="linearGradient8158"
       xlink:href="#linearGradient8152"
       gradientUnits="userSpaceOnUse" />
    <linearGradient
       x1="13.478554"
       y1="10.612206"
       x2="15.419417"
       y2="19.115122"
       id="linearGradient8170"
       xlink:href="#linearGradient2831"
       gradientUnits="userSpaceOnUse"
       gradientTransform="matrix(-1.0818662,0,0,-1.1166851,48.639854,47.862243)" />
    <linearGradient
       x1="37.128052"
       y1="29.729605"
       x2="37.40255"
       y2="26.800913"
       id="linearGradient8172"
       xlink:href="#linearGradient2847"
       gradientUnits="userSpaceOnUse"
       gradientTransform="matrix(1.0818662,0,0,1.1166851,-2.2754847,-3.644854)" />
    <linearGradient
       x1="49.412277"
       y1="37.904068"
       x2="11.881318"
       y2="19.776045"
       id="linearGradient8174"
       xlink:href="#linearGradient8152"
       gradientUnits="userSpaceOnUse" />
    <linearGradient
       x1="5.8925977"
       y1="20.540676"
       x2="45.198921"
       y2="27.721035"
       id="linearGradient8178"
       xlink:href="#linearGradient3207"
       gradientUnits="userSpaceOnUse" />
    <linearGradient
       x1="61.572533"
       y1="28.049652"
       x2="10.969182"
       y2="20.333939"
       id="linearGradient8180"
       xlink:href="#linearGradient5313"
       gradientUnits="userSpaceOnUse" />
    <linearGradient
       x1="8.6878576"
       y1="25.265627"
       x2="52.122673"
       y2="25.265627"
       id="linearGradient5341"
       xlink:href="#linearGradient5335"
       gradientUnits="userSpaceOnUse" />
  </defs>
  <g
     id="layer1">
    <path
       d="m 40.481863,36.421127 a 15.644737,8.3968935 0 1 1 -31.2894745,0 15.644737,8.3968935 0 1 1 31.2894745,0 z"
       transform="matrix(-1.5146484,0,0,-0.7917058,60.923237,69.528413)"
       id="path8660"
       style="opacity:0.36111109;color:#000000;fill:url(#radialGradient1503);fill-opacity:1;fill-rule:evenodd;stroke:none;stroke-width:1;marker:none;visibility:visible;display:inline;overflow:visible" />
    <path
       d="m 20.478497,9.7711467 c 0,0 -7.845509,-1.8273465 -6.110474,11.2531513 l -9.2651572,0 c 0,0 0.9056674,-13.4865207 15.3756312,-11.2531513 z"
       id="path2865"
       style="opacity:0.51807233;color:#000000;fill:url(#linearGradient1486);fill-opacity:1;fill-rule:nonzero;stroke:url(#linearGradient1488);stroke-width:1.04300582;stroke-linecap:butt;stroke-linejoin:miter;stroke-miterlimit:4;stroke-opacity:1;stroke-dasharray:none;stroke-dashoffset:0;marker:none;visibility:visible;display:block;overflow:visible" />
    <g
       transform="matrix(-0.6129282,-0.5154381,-0.5178496,0.610074,58.686164,13.911361)"
       id="g1878"
       style="fill:url(#linearGradient8158);fill-opacity:1;stroke:#204a87;stroke-width:1.24932528;stroke-miterlimit:4;stroke-opacity:1;stroke-dasharray:none">
      <path
         d="M 45.862102,50.273522 C 62.924432,34.96305 47.150241,15.929711 22.760624,12.513943 L 22.113577,3.1522143 7.613534,20.510135 22.703188,33.23244 c 0,0 -0.24836,-9.885335 -0.24836,-9.885335 18.835067,0.992479 32.320966,12.327936 23.407274,26.926417 z"
         id="path1880"
         style="color:#000000;fill:url(#linearGradient8180);fill-opacity:1;fill-rule:nonzero;stroke:#204a87;stroke-width:1.24977946;stroke-linecap:butt;stroke-linejoin:miter;stroke-miterlimit:4;stroke-opacity:1;stroke-dasharray:none;stroke-dashoffset:0;marker:none;visibility:visible;display:block;overflow:visible" />
    </g>
    <g
       transform="matrix(-0.612811,-0.5154406,-0.5177506,0.6100769,58.675633,13.911365)"
       id="g3185"
       style="opacity:0.54819282;fill:none;stroke:url(#linearGradient5341);stroke-width:1.24928653;stroke-miterlimit:4;stroke-opacity:1;stroke-dasharray:none">
      <path
         d="m 21.0625,6.3125 -11.75,14.03125 12.15625,10.25 -0.1875,-7.21875 a 1.1973567,1.1973567 0 0 1 1.25,-1.21875 c 9.639005,0.511379 17.909777,3.616765 22.75,8.71875 3.395219,3.578835 4.820799,8.256532 3.84375,13.34375 1.243339,-2.013109 1.982893,-4.024156 2.25,-6 0.495422,-3.66474 -0.518012,-7.272098 -2.8125,-10.625 C 43.973525,20.887947 34.236978,15.361613 22.3125,13.6875 A 1.1973567,1.1973567 0 0 1 21.28125,12.53125 L 21.0625,6.3125 z"
         transform="translate(1.0080026e-6,8.5223784e-7)"
         id="path3189"
         style="color:#000000;fill:none;stroke:url(#linearGradient5341);stroke-width:1.24928653;stroke-linecap:butt;stroke-linejoin:miter;stroke-miterlimit:4;stroke-opacity:1;stroke-dasharray:none;stroke-dashoffset:0;marker:none;visibility:visible;display:block;overflow:visible" />
    </g>
    <g
       transform="matrix(0.190868,0.16126,0.16126,-0.190868,-0.719083,15.30613)"
       id="g2424"
       style="opacity:0.5;fill:none;stroke:#ffffff;stroke-opacity:1" />
    <path
       d="m 27.340608,36.228853 c 0,0 7.845509,1.827347 6.110474,-11.253151 l 9.265158,0 c 0,0 -0.905668,13.486521 -15.375632,11.253151 z"
       id="path8160"
       style="opacity:0.51807233;color:#000000;fill:url(#linearGradient8170);fill-opacity:1;fill-rule:nonzero;stroke:url(#linearGradient8172);stroke-width:1.04300582;stroke-linecap:butt;stroke-linejoin:miter;stroke-miterlimit:4;stroke-opacity:1;stroke-dasharray:none;stroke-dashoffset:0;marker:none;visibility:visible;display:block;overflow:visible" />
    <g
       transform="matrix(0.6101332,0.5154999,0.5154881,-0.6101471,-10.618024,32.088556)"
       id="g8162"
       style="fill:url(#linearGradient8174);fill-opacity:1;stroke:#204a87;stroke-width:1.24932528;stroke-miterlimit:4;stroke-opacity:1;stroke-dasharray:none">
      <path
         d="M 45.862102,50.273522 C 62.924432,34.96305 47.150241,15.929711 22.760624,12.513943 L 22.113577,3.1522141 7.6135337,20.510135 22.703188,33.23244 c 0,0 -0.24836,-9.885335 -0.24836,-9.885335 18.835067,0.992479 32.320966,12.327936 23.407274,26.926417 z"
         id="path8164"
         style="color:#000000;fill:url(#linearGradient8180);fill-opacity:1;fill-rule:nonzero;stroke:#204a87;stroke-width:1.25256371;stroke-linecap:butt;stroke-linejoin:miter;stroke-miterlimit:4;stroke-opacity:1;stroke-dasharray:none;stroke-dashoffset:0;marker:none;visibility:visible;display:block;overflow:visible;enable-background:accumulate" />
    </g>
    <g
       transform="matrix(0.6128107,0.5154406,0.5177504,-0.6100769,-10.856505,32.088635)"
       id="g8166"
       style="fill:none;stroke:#204a87;stroke-width:1.24928653;stroke-miterlimit:4;stroke-opacity:1;stroke-dasharray:none">
      <path
         d="m 21.0625,6.3125 -11.75,14.03125 12.15625,10.25 -0.1875,-7.21875 a 1.1973567,1.1973567 0 0 1 1.25,-1.21875 c 9.639005,0.511379 17.909777,3.616765 22.75,8.71875 3.395219,3.578835 4.820799,8.256532 3.84375,13.34375 1.243339,-2.013109 1.982893,-4.024156 2.25,-6 0.495422,-3.66474 -0.518012,-7.272098 -2.8125,-10.625 C 43.973525,20.887947 34.236978,15.361613 22.3125,13.6875 A 1.1973567,1.1973567 0 0 1 21.28125,12.53125 L 21.0625,6.3125 z"
         transform="matrix(0.9972307,-0.00246056,-0.00246056,0.9980642,0.2457029,0.2077351)"
         id="path8168"
         style="color:#000000;fill:none;stroke:url(#linearGradient8178);stroke-width:1.2497319;stroke-linecap:butt;stroke-linejoin:miter;stroke-miterlimit:4;stroke-opacity:0.70588235;stroke-dasharray:none;stroke-dashoffset:0;marker:none;visibility:visible;display:block;overflow:visible" />
    </g>
  </g>
</svg>
