<?xml version="1.0" encoding="UTF-8" standalone="no"?>
<!-- Created with Inkscape (http://www.inkscape.org/) -->

<svg
   xmlns:dc="http://purl.org/dc/elements/1.1/"
   xmlns:cc="http://creativecommons.org/ns#"
   xmlns:rdf="http://www.w3.org/1999/02/22-rdf-syntax-ns#"
   xmlns:svg="http://www.w3.org/2000/svg"
   xmlns="http://www.w3.org/2000/svg"
   xmlns:xlink="http://www.w3.org/1999/xlink"
   xmlns:sodipodi="http://sodipodi.sourceforge.net/DTD/sodipodi-0.dtd"
   xmlns:inkscape="http://www.inkscape.org/namespaces/inkscape"
   width="412.2182"
   height="416.04276"
   id="svg2"
   sodipodi:version="0.32"
   inkscape:version="0.48.4 r9939"
   sodipodi:docname="nagstamon-beta.svg"
   inkscape:output_extension="org.inkscape.output.svg.inkscape"
   version="1.0">
  <defs
     id="defs4">
    <linearGradient
       id="linearGradient3371">
      <stop
         id="stop3373"
         offset="0"
         style="stop-color:#575a5b;stop-opacity:1;" />
      <stop
         id="stop3375"
         offset="1"
         style="stop-color:#000000;stop-opacity:0;" />
    </linearGradient>
    <linearGradient
       id="linearGradient3343">
      <stop
         id="stop3345"
         offset="0"
         style="stop-color:#ffffff;stop-opacity:0.59740257;" />
      <stop
         id="stop3347"
         offset="1"
         style="stop-color:#ffffff;stop-opacity:0.32034633;" />
    </linearGradient>
    <linearGradient
       id="linearGradient3191">
      <stop
         id="stop3193"
         offset="0"
         style="stop-color:#767676;stop-opacity:1;" />
      <stop
         id="stop3195"
         offset="1"
         style="stop-color:#d4d4d4;stop-opacity:1;" />
    </linearGradient>
    <linearGradient
       id="linearGradient3163">
      <stop
         style="stop-color:#ffffff;stop-opacity:1;"
         offset="0"
         id="stop3165" />
      <stop
         style="stop-color:#c3c3c3;stop-opacity:1;"
         offset="1"
         id="stop3167" />
    </linearGradient>
    <inkscape:perspective
       sodipodi:type="inkscape:persp3d"
       inkscape:vp_x="0 : 526.18109 : 1"
       inkscape:vp_y="6.123234e-14 : 1000 : 0"
       inkscape:vp_z="744.09448 : 526.18109 : 1"
       inkscape:persp3d-origin="372.04724 : 350.78739 : 1"
       id="perspective10" />
    <linearGradient
       inkscape:collect="always"
       xlink:href="#linearGradient3163"
       id="linearGradient3181"
       x1="200.94165"
       y1="299.38992"
       x2="550.94165"
       y2="599.38995"
       gradientUnits="userSpaceOnUse" />
    <linearGradient
       inkscape:collect="always"
       xlink:href="#linearGradient3191"
       id="linearGradient3189"
       x1="540.94165"
       y1="589.38995"
       x2="210.94165"
       y2="309.38992"
       gradientUnits="userSpaceOnUse" />
    <linearGradient
       inkscape:collect="always"
       xlink:href="#linearGradient3191"
       id="linearGradient3199"
       gradientUnits="userSpaceOnUse"
       x1="210.94165"
       y1="309.38995"
       x2="540.94165"
       y2="589.38995"
       gradientTransform="matrix(0.8787879,0,0,0.8571431,45.568681,64.198531)" />
    <linearGradient
       inkscape:collect="always"
       xlink:href="#linearGradient3343"
       id="linearGradient3341"
       x1="380.94165"
       y1="349.38992"
       x2="380.94165"
       y2="439.38992"
       gradientUnits="userSpaceOnUse"
       gradientTransform="translate(0,1.0253906e-5)" />
    <radialGradient
       inkscape:collect="always"
       xlink:href="#linearGradient3371"
       id="radialGradient3369"
       cx="215"
       cy="381.04276"
       fx="215"
       fy="381.04276"
       r="115.5"
       gradientTransform="matrix(1,0,0,0.1341991,0,329.90715)"
       gradientUnits="userSpaceOnUse" />
    <linearGradient
       inkscape:collect="always"
       xlink:href="#linearGradient3804"
       id="linearGradient3810"
       x1="199.14685"
       y1="383.68231"
       x2="187.45703"
       y2="362.39804"
       gradientUnits="userSpaceOnUse" />
    <linearGradient
       id="linearGradient3804">
      <stop
         style="stop-color:#006500;stop-opacity:1;"
         offset="0"
         id="stop3806" />
      <stop
         style="stop-color:#00ff00;stop-opacity:1;"
         offset="1"
         id="stop3808" />
    </linearGradient>
  </defs>
  <sodipodi:namedview
     id="base"
     pagecolor="#ffffff"
     bordercolor="#666666"
     borderopacity="1.0"
     inkscape:pageopacity="0.0"
     inkscape:pageshadow="2"
     inkscape:zoom="1.4142136"
     inkscape:cx="288.69521"
     inkscape:cy="340.62442"
     inkscape:document-units="px"
     inkscape:current-layer="g3858"
     showgrid="true"
     showguides="true"
     inkscape:snap-global="false"
     inkscape:snap-guide="true"
     inkscape:snap-bbox="true"
     inkscape:object-paths="false"
     inkscape:bbox-paths="false"
     inkscape:bbox-nodes="false"
     inkscape:object-nodes="false"
     inkscape:guide-bbox="true"
     objecttolerance="10000"
     guidetolerance="10"
     inkscape:snap-intersection-line-segments="true"
     inkscape:snap-center="true"
     inkscape:window-width="1078"
     inkscape:window-height="890"
     inkscape:window-x="125"
     inkscape:window-y="457"
     gridtolerance="10"
     inkscape:window-maximized="0">
    <inkscape:grid
       type="xygrid"
       id="grid2391"
       visible="true"
       enabled="true" />
  </sodipodi:namedview>
  <metadata
     id="metadata7">
    <rdf:RDF>
      <cc:Work
         rdf:about="">
        <dc:format>image/svg+xml</dc:format>
        <dc:type
           rdf:resource="http://purl.org/dc/dcmitype/StillImage" />
        <dc:title></dc:title>
      </cc:Work>
    </rdf:RDF>
  </metadata>
  <g
     inkscape:label="Ebene 1"
     inkscape:groupmode="layer"
     id="layer1"
     transform="translate(-170.94165,-253.34718)">
    <g
       id="g3191" />
    <g
       id="g3518"
       inkscape:export-xdpi="34.611824"
       inkscape:export-ydpi="34.611824">
      <path
         sodipodi:type="arc"
         style="opacity:1;fill:url(#radialGradient3369);fill-opacity:1;stroke:none;stroke-width:0.54660761000000002;stroke-miterlimit:4;stroke-dasharray:0.54660761000000002, 3.27964570000000011;stroke-dashoffset:0;stroke-opacity:1"
         id="path3359"
         sodipodi:cx="215"
         sodipodi:cy="381.04276"
         sodipodi:rx="115"
         sodipodi:ry="15"
         d="m 330,381.04276 c 0,8.28427 -51.48725,15 -115,15 -63.51275,0 -115,-6.71573 -115,-15 0,-8.28428 51.48725,-15 115,-15 63.51275,0 115,6.71572 115,15 z"
         transform="matrix(1.6043478,0,0,2.086172,31.006873,-185.42155)" />
      <rect
         y="289.38992"
         x="190.94165"
         height="320"
         width="370"
         id="rect3470"
         style="fill:#434343;fill-opacity:1;stroke:none;stroke-width:1.90700674;stroke-miterlimit:4;stroke-dasharray:none;stroke-opacity:1"
         inkscape:export-filename="/home/IFWNT/hw5/Data/Projekte/nagiostray/path3488.png"
         inkscape:export-xdpi="10.383548"
         inkscape:export-ydpi="10.383548"
         ry="39.583015" />
      <rect
         y="299.38989"
         x="200.94165"
         height="300.00003"
         width="350"
         id="rect3171"
         style="fill:url(#linearGradient3181);fill-opacity:1;stroke:none;stroke-width:1.90700673999999992;stroke-miterlimit:4;stroke-dasharray:none;stroke-opacity:1"
         inkscape:export-filename="/home/IFWNT/hw5/Data/Projekte/nagiostray/path3488.png"
         inkscape:export-xdpi="10.383548"
         inkscape:export-ydpi="10.383548"
         ry="37.109081" />
      <rect
         y="309.38995"
         x="210.94165"
         height="279.99997"
         width="330"
         id="rect3173"
         style="fill:url(#linearGradient3189);fill-opacity:1;stroke:none;stroke-width:1.90700673999999992;stroke-miterlimit:4;stroke-dasharray:none;stroke-opacity:1"
         inkscape:export-filename="/home/IFWNT/hw5/Data/Projekte/nagiostray/path3488.png"
         inkscape:export-xdpi="10.383548"
         inkscape:export-ydpi="10.383548"
         ry="34.635136" />
      <rect
         y="329.38992"
         x="230.94165"
         height="240.00003"
         width="290"
         id="rect3197"
         style="fill:url(#linearGradient3199);fill-opacity:1;stroke:none;stroke-width:1.90700674;stroke-miterlimit:4;stroke-dasharray:none;stroke-opacity:1"
         inkscape:export-filename="/home/IFWNT/hw5/Data/Projekte/nagiostray/path3488.png"
         inkscape:export-xdpi="10.383548"
         inkscape:export-ydpi="10.383548"
         ry="29.687262" />
      <rect
         y="339.38995"
         x="240.94165"
         height="219.99997"
         width="270"
         id="rect3201"
         style="fill:#000000;fill-opacity:1;stroke:none;stroke-width:1.90700674;stroke-miterlimit:4;stroke-dasharray:none;stroke-opacity:1"
         inkscape:export-filename="/home/IFWNT/hw5/Data/Projekte/nagiostray/path3488.png"
         inkscape:export-xdpi="10.383548"
         inkscape:export-ydpi="10.383548"
         ry="27.213316" />
      <g
         id="g2417"
         transform="matrix(-1,0,0,-1,751.8833,898.77986)">
        <path
           sodipodi:nodetypes="ccccccc"
           id="rect3244"
           d="M 268.15497,339.38992 L 483.72833,339.38992 C 498.80451,339.38992 510.94165,351.52706 510.94165,366.60324 C 510.94165,389.38994 510.94165,399.38994 510.94165,409.38994 L 240.94165,409.38994 L 240.94165,366.60324 C 240.94165,351.52706 253.07879,339.38992 268.15497,339.38992 z"
           style="fill:#ffff00;fill-opacity:1;stroke:none;stroke-width:1.90700674;stroke-miterlimit:4;stroke-opacity:1" />
        <path
           sodipodi:nodetypes="ccccccc"
           id="path3247"
           d="M 483.72833,559.38994 L 268.15497,559.38994 C 253.07879,559.38994 240.94165,547.2528 240.94165,532.17662 C 240.94165,509.38992 240.94165,489.38992 240.94165,479.38992 L 510.94165,479.38992 L 510.94165,532.17662 C 510.94165,547.2528 498.80451,559.38994 483.72833,559.38994 z"
           style="fill:#ff0000;fill-opacity:1;stroke:none;stroke-width:1.90700674;stroke-miterlimit:4;stroke-opacity:1" />
        <rect
           ry="0"
           transform="translate(170.94165,253.34718)"
           y="156.04276"
           x="70"
           height="70"
           width="270"
           id="rect3249"
           style="fill:#ff8500;fill-opacity:1;stroke:none;stroke-width:1;stroke-miterlimit:4;stroke-dasharray:1, 6;stroke-dashoffset:0;stroke-opacity:1" />
      </g>
      <path
         style="font-size:40px;font-style:normal;font-weight:normal;opacity:1;fill:#000000;fill-opacity:1;stroke:none;stroke-width:1px;stroke-linecap:butt;stroke-linejoin:miter;stroke-opacity:1;font-family:Bitstream Vera Sans"
         d="M 297.87524,359.38994 L 347.84292,359.38994 L 410.94165,482.84609 L 410.94165,359.38994 L 453.35609,359.38994 L 453.35609,539.38994 L 403.3884,539.38994 L 340.28968,415.93378 L 340.28968,539.38994 L 297.87524,539.38994 L 297.87524,359.38994"
         id="text3349" />
      <path
         style="fill:url(#linearGradient3341);fill-opacity:1;stroke:none;stroke-width:1.90700674;stroke-miterlimit:4;stroke-opacity:1"
         d="M 268.15497,339.38994 L 483.69858,339.38994 C 498.94165,339.38994 510.96527,351.62813 510.94165,366.63994 C 510.94165,377.05931 510.94165,379.38996 510.94165,379.38996 C 510.94165,397.60607 456.64097,370.51271 380.94165,429.38996 C 305.24233,488.2672 250.94165,489.38996 240.94165,489.38996 L 240.94165,366.60326 C 240.94165,351.52708 253.07879,339.38994 268.15497,339.38994 z"
         id="path3333"
         sodipodi:nodetypes="cccszccc" />
      <g
         transform="matrix(7.7372416,0,0,7.7372416,-1058.535,-2425.9611)"
         id="g3864">
        <path
           inkscape:export-ydpi="90"
           inkscape:export-xdpi="90"
           inkscape:export-filename="/home/henri/Data/Projekte/IDM/static/beta.png"
           transform="matrix(0.41752365,0,0,0.41752365,122.31722,200.91854)"
           sodipodi:type="star"
           style="fill:#11ff00;fill-opacity:1;stroke:#000000;stroke-width:2.70000005;stroke-miterlimit:4;stroke-opacity:1;stroke-dasharray:none"
           id="path3612-8"
           sodipodi:sides="13"
           sodipodi:cx="193.44421"
           sodipodi:cy="371.77191"
           sodipodi:r1="20.462214"
           sodipodi:r2="16.022402"
           sodipodi:arg1="0.74611707"
           sodipodi:arg2="0.98874358"
           inkscape:flatsided="false"
           inkscape:rounded="0"
           inkscape:randomized="0"
           d="m 208.47023,385.66151 -6.21786,-0.50551 -1.95809,5.89748 -5.27073,-3.33719 -4.4745,4.31198 -3.11612,-5.40436 -5.96586,1.73867 -0.24765,-6.23346 -6.09051,-1.23296 2.67755,-5.63455 -4.81989,-3.92212 4.98936,-3.74483 -2.4451,-5.71278 6.15816,-0.99721 0.48983,-6.19471 5.91621,1.97885 3.31255,-5.25751 4.31893,4.50159 5.3764,-3.11587 1.73223,5.99306 6.20859,-0.26043 -1.25131,6.1116 5.61846,2.65468 -3.94818,4.83004 3.74121,4.96163 -5.74057,2.44198 z" />
        <path
           inkscape:export-ydpi="90"
           inkscape:export-xdpi="90"
           inkscape:export-filename="/home/henri/Data/Projekte/IDM/static/beta.png"
           sodipodi:type="star"
           style="fill:url(#linearGradient3810);fill-opacity:1;stroke:#ffffff;stroke-width:0.89999998;stroke-miterlimit:4;stroke-opacity:1;stroke-dasharray:none"
           id="path3612"
           sodipodi:sides="13"
           sodipodi:cx="193.44421"
           sodipodi:cy="371.77191"
           sodipodi:r1="20.462214"
           sodipodi:r2="16.022402"
           sodipodi:arg1="0.74611707"
           sodipodi:arg2="0.98874358"
           inkscape:flatsided="false"
           inkscape:rounded="0"
           inkscape:randomized="0"
           d="m 208.47023,385.66151 -6.21786,-0.50551 -1.95809,5.89748 -5.27073,-3.33719 -4.4745,4.31198 -3.11612,-5.40436 -5.96586,1.73867 -0.24765,-6.23346 -6.09051,-1.23296 2.67755,-5.63455 -4.81989,-3.92212 4.98936,-3.74483 -2.4451,-5.71278 6.15816,-0.99721 0.48983,-6.19471 5.91621,1.97885 3.31255,-5.25751 4.31893,4.50159 5.3764,-3.11587 1.73223,5.99306 6.20859,-0.26043 -1.25131,6.1116 5.61846,2.65468 -3.94818,4.83004 3.74121,4.96163 -5.74057,2.44198 z"
           transform="matrix(0.41752365,0,0,0.41752365,122.32017,200.89677)" />
        <g
           transform="matrix(1.4956504,0,0,1.4956504,-97.714168,-176.68006)"
           id="g3858">
          <g
             transform="matrix(0.91916921,-0.33308362,0.33629409,0.96607451,0,0)"
             style="font-size:4.94876385px;font-style:normal;font-weight:normal;fill:#ffffff;fill-opacity:1;stroke:#000000;stroke-width:0.07735563;stroke-miterlimit:2.79999995;stroke-opacity:1;font-family:Bitstream Vera Sans"
             id="text3614">
            <path
               d="m 72.895417,393.88388 c 0.05939,0 0.113822,0 0.168258,0 0.301874,0 0.564159,-0.0148 0.8017,-0.193 0.202899,-0.15341 0.311772,-0.38106 0.311772,-0.63344 0,-0.34642 -0.158361,-0.56416 -0.509723,-0.69283 0.212797,-0.12372 0.32167,-0.31672 0.32167,-0.56911 0,-0.49487 -0.346414,-0.77695 -1.03924,-0.77695 l -1.113472,0 c -0.202899,0 -0.301875,0.0693 -0.301875,0.26723 0,0.17321 0.09403,0.26723 0.262285,0.26723 0.01485,0 0.02474,0 0.03959,0 l 0,1.80135 c -0.01485,0 -0.02474,0 -0.03959,0 -0.168258,0 -0.262285,0.0891 -0.262285,0.26229 0,0.19795 0.09898,0.26723 0.301875,0.26723 l 1.059035,0 m -0.460235,-1.73702 0,-0.60869 0.40085,0 c 0.316721,0 0.465184,0.0841 0.465184,0.30187 0,0.23754 -0.178156,0.30682 -0.544364,0.30682 l -0.32167,0 m 0,1.22235 0,-0.73737 0.386004,0 c 0.445388,0 0.673032,0.0693 0.673032,0.37116 0,0.28703 -0.232593,0.36621 -0.697776,0.36621 l -0.36126,0"
               style="font-variant:normal;font-weight:bold;font-stretch:normal;stroke:#000000;font-family:Courier 10 Pitch;-inkscape-font-specification:Courier 10 Pitch Bold"
               id="path3102" />
            <path
               d="m 76.792878,391.01855 -1.979506,0 c -0.19795,0 -0.296925,0.0742 -0.296925,0.26723 0,0.17321 0.09403,0.26723 0.262284,0.26723 0.0099,0 0.02474,0 0.03464,0 l 0,1.80135 c -0.01485,0 -0.02474,0 -0.03959,0 -0.163309,0 -0.257335,0.094 -0.257335,0.26229 0,0.19795 0.09897,0.26723 0.296925,0.26723 l 1.979506,0 c 0.202899,0 0.252387,-0.0445 0.252387,-0.21774 l 0,-0.58396 c 0,-0.2029 -0.05939,-0.30187 -0.257336,-0.30187 -0.193001,0 -0.262284,0.094 -0.262284,0.30187 l 0,0.28703 -1.12337,0 0,-0.72252 0.425594,0 c 0,0.0149 0,0.0297 0,0.0445 0,0.17321 0.08413,0.25733 0.247438,0.25733 0.183104,0 0.247438,-0.099 0.247438,-0.30187 l 0,-0.49983 c 0,-0.20289 -0.06928,-0.30187 -0.252387,-0.30187 -0.163309,0 -0.247438,0.0891 -0.247438,0.27218 0,0.01 0,0.0198 0,0.0297 l -0.420645,0 0,-0.61859 1.12337,0 0,0.25239 c 0,0.2029 0.06433,0.30682 0.262284,0.30682 0.193002,0 0.257336,-0.099 0.257336,-0.30682 l 0,-0.53942 c 0,-0.17321 -0.04949,-0.22269 -0.252387,-0.22269"
               style="font-variant:normal;font-weight:bold;font-stretch:normal;stroke:#000000;font-family:Courier 10 Pitch;-inkscape-font-specification:Courier 10 Pitch Bold"
               id="path3104" />
          </g>
          <g
             transform="matrix(0.91916921,-0.33308363,0.33629408,0.96607451,0,0)"
             style="font-size:4.94876385px;font-style:normal;font-weight:normal;fill:#ffffff;fill-opacity:1;stroke:#000000;stroke-width:0.07735563;stroke-miterlimit:2.79999995;stroke-opacity:1;font-family:Bitstream Vera Sans"
             id="text3614-1">
            <path
               d="m 72.258946,397.3186 1.435141,0 c 0.207848,0 0.301875,-0.0792 0.301875,-0.26723 0,-0.2029 -0.09898,-0.26723 -0.301875,-0.26723 l -0.405798,0 0,-1.80135 0.504773,0 0.01485,0.48992 c 0,0.0594 0.0049,0.0891 0.0049,0.10393 0,0.099 0.09403,0.2029 0.24249,0.2029 0.188053,0 0.257336,-0.094 0.257336,-0.28703 0,-0.005 0,-0.0148 0,-0.0198 l -0.02474,-0.72251 c -0.0099,-0.24249 -0.01979,-0.30188 -0.272182,-0.30188 l -2.078481,0 c -0.252387,0 -0.262285,0.0594 -0.272182,0.30188 l -0.02474,0.72251 c 0,0.005 0,0.0148 0,0.0198 0,0.193 0.07423,0.28703 0.262285,0.28703 0.153411,0 0.242489,-0.094 0.242489,-0.24744 0,-0.0247 0,-0.0445 0,-0.0594 l 0.01485,-0.48992 0.504774,0 0,1.80135 -0.405798,0 c -0.202899,0 -0.306824,0.0643 -0.306824,0.26723 0,0.18805 0.09898,0.26723 0.306824,0.26723"
               style="font-variant:normal;font-weight:bold;font-stretch:normal;stroke:#000000;font-family:Courier 10 Pitch;-inkscape-font-specification:Courier 10 Pitch Bold"
               id="path3107" />
            <path
               d="m 75.280475,396.78909 0.103924,-0.28208 1.044189,0 0.09898,0.28208 -0.08413,0 c -0.202899,0 -0.306824,0.0594 -0.306824,0.26228 0,0.2029 0.103925,0.26723 0.306824,0.26723 l 0.727468,0 c 0.202899,0 0.306823,-0.0643 0.306823,-0.26723 0,-0.17321 -0.09403,-0.26228 -0.267233,-0.26228 -0.0099,0 -0.02474,0 -0.03959,0 l -0.767058,-2.09828 c -0.06433,-0.17816 -0.08413,-0.23754 -0.301875,-0.23754 l -0.905624,0 c -0.207848,0 -0.306823,0.0693 -0.306823,0.26723 0,0.2029 0.09898,0.26724 0.301874,0.26724 l 0.197951,0 -0.648288,1.80135 c -0.01485,0 -0.02969,0 -0.03959,0 -0.173207,0 -0.267233,0.0891 -0.267233,0.26228 0,0.2029 0.103924,0.26723 0.306823,0.26723 l 0.623544,0 c 0.202899,0 0.306824,-0.0643 0.306824,-0.26723 0,-0.2029 -0.103925,-0.26228 -0.306824,-0.26228 l -0.08413,0 m 0.272182,-0.78191 0.351362,-1.01944 0.351363,1.01944 -0.702725,0"
               style="font-variant:normal;font-weight:bold;font-stretch:normal;stroke:#000000;font-family:Courier 10 Pitch;-inkscape-font-specification:Courier 10 Pitch Bold"
               id="path3109" />
          </g>
        </g>
      </g>
    </g>
  </g>
</svg>
